<mxfile host="app.diagrams.net" agent="Mozilla/5.0 (Macintosh; Intel Mac OS X 10_15_7) AppleWebKit/537.36 (KHTML, like Gecko) Chrome/131.0.0.0 Safari/537.36" version="24.8.4">
  <diagram name="Page-1" id="V7MEMnslj5JKIjGSrhll">
    <mxGraphModel dx="748" dy="456" grid="1" gridSize="10" guides="1" tooltips="1" connect="1" arrows="1" fold="1" page="1" pageScale="1" pageWidth="827" pageHeight="1169" math="0" shadow="0">
      <root>
        <mxCell id="0" />
        <mxCell id="1" parent="0" />
        <mxCell id="NMXHSuPOAZJpDfRtwlBS-6" value="Add" style="edgeStyle=orthogonalEdgeStyle;rounded=0;orthogonalLoop=1;jettySize=auto;html=1;exitX=1;exitY=0.5;exitDx=0;exitDy=0;entryX=0;entryY=0.5;entryDx=0;entryDy=0;" edge="1" parent="1" source="NMXHSuPOAZJpDfRtwlBS-1" target="NMXHSuPOAZJpDfRtwlBS-2">
          <mxGeometry relative="1" as="geometry" />
        </mxCell>
        <mxCell id="NMXHSuPOAZJpDfRtwlBS-1" value="0&lt;div&gt;res&lt;/div&gt;&lt;div&gt;total&lt;/div&gt;" style="ellipse;whiteSpace=wrap;html=1;" vertex="1" parent="1">
          <mxGeometry x="240" y="340" width="40" height="60" as="geometry" />
        </mxCell>
        <mxCell id="NMXHSuPOAZJpDfRtwlBS-7" value="Add" style="edgeStyle=orthogonalEdgeStyle;rounded=0;orthogonalLoop=1;jettySize=auto;html=1;exitX=1;exitY=0.5;exitDx=0;exitDy=0;entryX=0;entryY=0.5;entryDx=0;entryDy=0;" edge="1" parent="1" source="NMXHSuPOAZJpDfRtwlBS-2" target="NMXHSuPOAZJpDfRtwlBS-3">
          <mxGeometry relative="1" as="geometry" />
        </mxCell>
        <mxCell id="NMXHSuPOAZJpDfRtwlBS-2" value="1&lt;div&gt;res&lt;/div&gt;" style="ellipse;whiteSpace=wrap;html=1;" vertex="1" parent="1">
          <mxGeometry x="320" y="340" width="40" height="60" as="geometry" />
        </mxCell>
        <mxCell id="NMXHSuPOAZJpDfRtwlBS-8" value="Add" style="edgeStyle=orthogonalEdgeStyle;rounded=0;orthogonalLoop=1;jettySize=auto;html=1;exitX=1;exitY=0.5;exitDx=0;exitDy=0;entryX=0;entryY=0.5;entryDx=0;entryDy=0;" edge="1" parent="1" source="NMXHSuPOAZJpDfRtwlBS-3" target="NMXHSuPOAZJpDfRtwlBS-4">
          <mxGeometry relative="1" as="geometry" />
        </mxCell>
        <mxCell id="NMXHSuPOAZJpDfRtwlBS-3" value="2&lt;div&gt;res&lt;/div&gt;" style="ellipse;whiteSpace=wrap;html=1;" vertex="1" parent="1">
          <mxGeometry x="400" y="340" width="40" height="60" as="geometry" />
        </mxCell>
        <mxCell id="NMXHSuPOAZJpDfRtwlBS-11" value="Return to&amp;nbsp;total" style="edgeStyle=orthogonalEdgeStyle;rounded=0;orthogonalLoop=1;jettySize=auto;html=1;exitX=0.5;exitY=1;exitDx=0;exitDy=0;entryX=0.5;entryY=1;entryDx=0;entryDy=0;" edge="1" parent="1" source="NMXHSuPOAZJpDfRtwlBS-4" target="NMXHSuPOAZJpDfRtwlBS-1">
          <mxGeometry relative="1" as="geometry">
            <mxPoint x="310" y="410" as="targetPoint" />
          </mxGeometry>
        </mxCell>
        <mxCell id="NMXHSuPOAZJpDfRtwlBS-4" value="&lt;div&gt;3&lt;/div&gt;&lt;div&gt;res&lt;/div&gt;" style="ellipse;whiteSpace=wrap;html=1;" vertex="1" parent="1">
          <mxGeometry x="480" y="340" width="40" height="60" as="geometry" />
        </mxCell>
        <mxCell id="NMXHSuPOAZJpDfRtwlBS-13" value="Reduce" style="text;html=1;align=center;verticalAlign=middle;resizable=0;points=[];autosize=1;strokeColor=none;fillColor=none;" vertex="1" parent="1">
          <mxGeometry x="240" y="298" width="60" height="30" as="geometry" />
        </mxCell>
        <mxCell id="NMXHSuPOAZJpDfRtwlBS-14" value="Add" style="edgeStyle=orthogonalEdgeStyle;rounded=0;orthogonalLoop=1;jettySize=auto;html=1;exitX=1;exitY=0.5;exitDx=0;exitDy=0;entryX=0;entryY=0.5;entryDx=0;entryDy=0;" edge="1" parent="1" source="NMXHSuPOAZJpDfRtwlBS-15" target="NMXHSuPOAZJpDfRtwlBS-17">
          <mxGeometry relative="1" as="geometry" />
        </mxCell>
        <mxCell id="NMXHSuPOAZJpDfRtwlBS-15" value="0&lt;div&gt;res&lt;/div&gt;&lt;div&gt;total&lt;/div&gt;" style="ellipse;whiteSpace=wrap;html=1;" vertex="1" parent="1">
          <mxGeometry x="240" y="472" width="40" height="58" as="geometry" />
        </mxCell>
        <mxCell id="NMXHSuPOAZJpDfRtwlBS-16" value="Add" style="edgeStyle=orthogonalEdgeStyle;rounded=0;orthogonalLoop=1;jettySize=auto;html=1;exitX=1;exitY=0.5;exitDx=0;exitDy=0;entryX=0;entryY=0.5;entryDx=0;entryDy=0;" edge="1" parent="1" source="NMXHSuPOAZJpDfRtwlBS-17" target="NMXHSuPOAZJpDfRtwlBS-19">
          <mxGeometry relative="1" as="geometry" />
        </mxCell>
        <mxCell id="NMXHSuPOAZJpDfRtwlBS-27" value="Return total" style="edgeStyle=orthogonalEdgeStyle;rounded=0;orthogonalLoop=1;jettySize=auto;html=1;exitX=0;exitY=1;exitDx=0;exitDy=0;entryX=0.5;entryY=1;entryDx=0;entryDy=0;" edge="1" parent="1" source="NMXHSuPOAZJpDfRtwlBS-17" target="NMXHSuPOAZJpDfRtwlBS-15">
          <mxGeometry x="0.2842" y="-2" relative="1" as="geometry">
            <mxPoint as="offset" />
          </mxGeometry>
        </mxCell>
        <mxCell id="NMXHSuPOAZJpDfRtwlBS-17" value="1&lt;div&gt;res&lt;/div&gt;&lt;div&gt;total&lt;/div&gt;" style="ellipse;whiteSpace=wrap;html=1;" vertex="1" parent="1">
          <mxGeometry x="320" y="472" width="40" height="58" as="geometry" />
        </mxCell>
        <mxCell id="NMXHSuPOAZJpDfRtwlBS-18" value="Add" style="edgeStyle=orthogonalEdgeStyle;rounded=0;orthogonalLoop=1;jettySize=auto;html=1;exitX=1;exitY=0.5;exitDx=0;exitDy=0;entryX=0;entryY=0.5;entryDx=0;entryDy=0;" edge="1" parent="1" source="NMXHSuPOAZJpDfRtwlBS-19" target="NMXHSuPOAZJpDfRtwlBS-21">
          <mxGeometry relative="1" as="geometry" />
        </mxCell>
        <mxCell id="NMXHSuPOAZJpDfRtwlBS-25" style="edgeStyle=orthogonalEdgeStyle;rounded=0;orthogonalLoop=1;jettySize=auto;html=1;exitX=0;exitY=1;exitDx=0;exitDy=0;entryX=0.5;entryY=1;entryDx=0;entryDy=0;" edge="1" parent="1" source="NMXHSuPOAZJpDfRtwlBS-19" target="NMXHSuPOAZJpDfRtwlBS-17">
          <mxGeometry relative="1" as="geometry" />
        </mxCell>
        <mxCell id="NMXHSuPOAZJpDfRtwlBS-26" value="Return total" style="edgeLabel;html=1;align=center;verticalAlign=middle;resizable=0;points=[];" vertex="1" connectable="0" parent="NMXHSuPOAZJpDfRtwlBS-25">
          <mxGeometry x="0.487" y="-2" relative="1" as="geometry">
            <mxPoint x="12" as="offset" />
          </mxGeometry>
        </mxCell>
        <mxCell id="NMXHSuPOAZJpDfRtwlBS-19" value="2&lt;div&gt;res&lt;/div&gt;&lt;div&gt;total&lt;/div&gt;" style="ellipse;whiteSpace=wrap;html=1;" vertex="1" parent="1">
          <mxGeometry x="400" y="472" width="40" height="58" as="geometry" />
        </mxCell>
        <mxCell id="NMXHSuPOAZJpDfRtwlBS-23" style="edgeStyle=orthogonalEdgeStyle;rounded=0;orthogonalLoop=1;jettySize=auto;html=1;exitX=0;exitY=1;exitDx=0;exitDy=0;entryX=0.5;entryY=1;entryDx=0;entryDy=0;" edge="1" parent="1" source="NMXHSuPOAZJpDfRtwlBS-21" target="NMXHSuPOAZJpDfRtwlBS-19">
          <mxGeometry relative="1" as="geometry" />
        </mxCell>
        <mxCell id="NMXHSuPOAZJpDfRtwlBS-24" value="Return total" style="edgeLabel;html=1;align=center;verticalAlign=middle;resizable=0;points=[];" vertex="1" connectable="0" parent="NMXHSuPOAZJpDfRtwlBS-23">
          <mxGeometry x="0.1888" y="-1" relative="1" as="geometry">
            <mxPoint x="-5" as="offset" />
          </mxGeometry>
        </mxCell>
        <mxCell id="NMXHSuPOAZJpDfRtwlBS-21" value="&lt;div&gt;3&lt;/div&gt;&lt;div&gt;res&lt;/div&gt;&lt;div&gt;total&lt;/div&gt;" style="ellipse;whiteSpace=wrap;html=1;" vertex="1" parent="1">
          <mxGeometry x="480" y="472" width="40" height="58" as="geometry" />
        </mxCell>
        <mxCell id="NMXHSuPOAZJpDfRtwlBS-22" value="Allreduce" style="text;html=1;align=center;verticalAlign=middle;resizable=0;points=[];autosize=1;strokeColor=none;fillColor=none;" vertex="1" parent="1">
          <mxGeometry x="240" y="442" width="70" height="30" as="geometry" />
        </mxCell>
      </root>
    </mxGraphModel>
  </diagram>
</mxfile>
